<svg width="28" height="28" viewBox="0 0 28 28" fill="none" xmlns="http://www.w3.org/2000/svg">
<g clip-path="url(#clip0_1_85)">
<path d="M16.2442 13.7663L13.0998 12.2991C12.8254 12.1717 12.6 12.3145 12.6 12.6183V15.3819C12.6 15.6857 12.8254 15.8285 13.0998 15.7011L16.2428 14.2339C16.5186 14.1051 16.5186 13.8951 16.2442 13.7663ZM14 0.560059C6.5772 0.560059 0.559998 6.57726 0.559998 14.0001C0.559998 21.4229 6.5772 27.4401 14 27.4401C21.4228 27.4401 27.44 21.4229 27.44 14.0001C27.44 6.57726 21.4228 0.560059 14 0.560059ZM14 19.4601C7.1204 19.4601 7 18.8399 7 14.0001C7 9.16026 7.1204 8.54006 14 8.54006C20.8796 8.54006 21 9.16026 21 14.0001C21 18.8399 20.8796 19.4601 14 19.4601Z" fill="white"/>
</g>
<defs>
<clipPath id="clip0_1_85">
<rect width="28" height="28" fill="white"/>
</clipPath>
</defs>
</svg>
