<svg width="29" height="29" viewBox="0 0 29 29" fill="none" xmlns="http://www.w3.org/2000/svg">
<g clip-path="url(#clip0_1_89)">
<path d="M18.85 14.5C18.85 15.6536 18.3917 16.7601 17.5759 17.5759C16.7601 18.3917 15.6537 18.85 14.5 18.85C13.3463 18.85 12.2399 18.3917 11.4241 17.5759C10.6083 16.7601 10.15 15.6536 10.15 14.5C10.15 14.252 10.1761 14.0099 10.221 13.775H8.69999V19.5706C8.69999 19.9737 9.02624 20.3 9.42934 20.3H19.5721C19.7653 20.2996 19.9504 20.2226 20.0869 20.0858C20.2233 19.9491 20.3 19.7638 20.3 19.5706V13.775H18.7789C18.8239 14.0099 18.85 14.252 18.85 14.5ZM14.5 17.4C14.8809 17.3999 15.2581 17.3247 15.61 17.1789C15.9619 17.033 16.2816 16.8193 16.5509 16.5498C16.8202 16.2804 17.0338 15.9606 17.1795 15.6086C17.3251 15.2567 17.4001 14.8794 17.4 14.4985C17.3999 14.1176 17.3248 13.7404 17.1789 13.3885C17.033 13.0366 16.8193 12.7169 16.5499 12.4476C16.2804 12.1783 15.9606 11.9647 15.6087 11.819C15.2567 11.6733 14.8795 11.5984 14.4985 11.5985C13.7292 11.5987 12.9915 11.9045 12.4476 12.4486C11.9038 12.9927 11.5983 13.7306 11.5985 14.5C11.5987 15.2693 11.9045 16.007 12.4487 16.5509C12.9928 17.0947 13.7307 17.4002 14.5 17.4ZM17.98 11.455H19.7185C19.834 11.455 19.9448 11.4092 20.0266 11.3276C20.1085 11.2461 20.1546 11.1355 20.155 11.02V9.28141C20.155 9.16565 20.109 9.05464 20.0272 8.97279C19.9453 8.89094 19.8343 8.84496 19.7185 8.84496H17.98C17.8642 8.84496 17.7532 8.89094 17.6714 8.97279C17.5895 9.05464 17.5435 9.16565 17.5435 9.28141V11.02C17.545 11.2592 17.7407 11.455 17.98 11.455ZM14.5 0.579956C10.8082 0.579956 7.26757 2.04652 4.65706 4.65703C2.04655 7.26754 0.579987 10.8081 0.579987 14.5C0.579987 18.1918 2.04655 21.7324 4.65706 24.3429C7.26757 26.9534 10.8082 28.42 14.5 28.42C16.328 28.42 18.1381 28.0599 19.8269 27.3604C21.5158 26.6608 23.0503 25.6355 24.3429 24.3429C25.6355 23.0503 26.6608 21.5158 27.3604 19.8269C28.0599 18.1381 28.42 16.328 28.42 14.5C28.42 12.672 28.0599 10.8619 27.3604 9.173C26.6608 7.48415 25.6355 5.94962 24.3429 4.65703C23.0503 3.36444 21.5158 2.3391 19.8269 1.63955C18.1381 0.940008 16.328 0.579956 14.5 0.579956ZM21.75 20.139C21.75 21.025 21.025 21.75 20.139 21.75H8.86094C7.97499 21.75 7.24999 21.025 7.24999 20.139V8.86091C7.24999 7.97496 7.97499 7.24996 8.86094 7.24996H20.139C21.025 7.24996 21.75 7.97496 21.75 8.86091V20.139Z" fill="white"/>
</g>
<defs>
<clipPath id="clip0_1_89">
<rect width="29" height="29" fill="white"/>
</clipPath>
</defs>
</svg>
