<svg width="28" height="28" viewBox="0 0 28 28" fill="none" xmlns="http://www.w3.org/2000/svg">
<g clip-path="url(#clip0_1_87)">
<path d="M14 0.560059C6.5772 0.560059 0.559998 6.57726 0.559998 14.0001C0.559998 21.4229 6.5772 27.4401 14 27.4401C21.4228 27.4401 27.44 21.4229 27.44 14.0001C27.44 6.57726 21.4228 0.560059 14 0.560059ZM19.467 11.5697C19.4726 11.6845 19.474 11.7993 19.474 11.9113C19.474 15.4113 16.8126 19.4447 11.9434 19.4447C10.5046 19.4471 9.09575 19.0338 7.8862 18.2547C8.092 18.2799 8.3034 18.2897 8.5176 18.2897C9.758 18.2897 10.899 17.8683 11.8048 17.1571C11.2528 17.1462 10.7179 16.9634 10.2748 16.6342C9.83157 16.3049 9.50215 15.8456 9.3324 15.3203C9.72882 15.3956 10.1372 15.3798 10.5266 15.2741C9.92747 15.1529 9.38867 14.8283 9.00159 14.3552C8.6145 13.8821 8.40295 13.2897 8.4028 12.6785V12.6463C8.7598 12.8437 9.1686 12.9641 9.6026 12.9781C9.04092 12.6042 8.6433 12.0298 8.49106 11.3724C8.33882 10.7151 8.44347 10.0244 8.7836 9.44166C9.44853 10.2593 10.2778 10.9281 11.2176 11.4049C12.1574 11.8817 13.1869 12.1558 14.2394 12.2095C14.1056 11.6415 14.1632 11.0452 14.4032 10.5134C14.6432 9.9815 15.0523 9.54384 15.5667 9.26843C16.0811 8.99301 16.6721 8.89527 17.2478 8.9904C17.8236 9.08553 18.3517 9.36819 18.7502 9.79446C19.3426 9.67724 19.9108 9.45993 20.4302 9.15186C20.2327 9.76525 19.8193 10.2861 19.2668 10.6177C19.7916 10.5545 20.304 10.4134 20.7872 10.1991C20.4323 10.7309 19.9852 11.1951 19.467 11.5697Z" fill="white"/>
</g>
<defs>
<clipPath id="clip0_1_87">
<rect width="28" height="28" fill="white"/>
</clipPath>
</defs>
</svg>
