<svg width="28" height="28" viewBox="0 0 28 28" fill="none" xmlns="http://www.w3.org/2000/svg">
<g clip-path="url(#clip0_1_91)">
<path d="M28 14.0858C28 6.30529 21.7315 -0.00170898 14 -0.00170898C6.26499 4.10158e-05 -0.00350952 6.30529 -0.00350952 14.0875C-0.00350952 21.1173 5.11699 26.9448 11.809 28.0018V18.158H8.25649V14.0875H11.8125V10.9813C11.8125 7.45154 13.9037 5.50204 17.101 5.50204C18.634 5.50204 20.2352 5.77679 20.2352 5.77679V9.24179H18.4695C16.7317 9.24179 16.1892 10.3285 16.1892 11.4433V14.0858H20.0707L19.4512 18.1563H16.1875V28C22.8795 26.943 28 21.1155 28 14.0858Z" fill="white"/>
</g>
<defs>
<clipPath id="clip0_1_91">
<rect width="28" height="28" fill="white"/>
</clipPath>
</defs>
</svg>
